<svg xmlns="http://www.w3.org/2000/svg" version="1.1" xmlns:xlink="http://www.w3.org/1999/xlink" xmlns:svgjs="http://svgjs.com/svgjs" width="512" height="512"><svg width="512" height="512" viewBox="0 0 512 512" version="1.1" id="SvgjsSvg1006" inkscape:version="1.1 (c68e22c387, 2021-05-23)" sodipodi:docname="Rnaxan (Dark).svg" inkscape:export-filename="G:\Other computers\My computer\XCWalker.dev\Icons\Acron.png" inkscape:export-xdpi="48" inkscape:export-ydpi="48" xmlns:inkscape="http://www.inkscape.org/namespaces/inkscape" xmlns:sodipodi="http://sodipodi.sourceforge.net/DTD/sodipodi-0.dtd" xmlns="http://www.w3.org/2000/svg" xmlns:svg="http://www.w3.org/2000/svg">
  <sodipodi:namedview id="SvgjsSodipodi:namedview1005" pagecolor="#505050" bordercolor="#ffffff" borderopacity="1" inkscape:pageshadow="0" inkscape:pageopacity="0" inkscape:pagecheckerboard="1" inkscape:document-units="px" showgrid="false" inkscape:zoom="0.80371094" inkscape:cx="232.0486" inkscape:cy="283.06197" inkscape:window-width="1920" inkscape:window-height="1137" inkscape:window-x="1912" inkscape:window-y="-8" inkscape:window-maximized="1" inkscape:current-layer="layer1"></sodipodi:namedview>
  <defs id="SvgjsDefs1004"></defs>
  <g inkscape:label="Background" inkscape:groupmode="layer" id="SvgjsG1003">
    <rect style="font-variation-settings:'wght' 700;fill:#183059;fill-opacity:1;stroke-width:0.5" id="SvgjsRect1002" width="512" height="512" x="0" y="0" rx="100" ry="100"></rect>
  </g>
  <g inkscape:groupmode="layer" id="SvgjsG1001" inkscape:label="Txt">
    <path id="SvgjsPath1000" style="font-weight:bold;font-size:334.909px;line-height:1;font-family:Montserrat;-inkscape-font-specification:'Montserrat Bold';text-align:center;text-anchor:middle;fill:#f6f4f3;stroke-width:0.956881" d="M 47.853516 138.78125 L 47.853516 373.21875 L 102.10938 373.21875 L 102.10938 307.91016 L 149.33203 307.91016 C 150.18863 307.91016 151.0105 307.87053 151.85742 307.85938 L 196.88867 373.21875 L 255.49805 373.21875 L 203.11914 298.05273 C 203.27232 297.98609 203.43529 297.9306 203.58789 297.86328 C 218.77043 291.1651 230.49086 281.56382 238.75195 269.06055 C 247.01304 256.33401 251.14453 241.26488 251.14453 223.84961 C 251.14453 206.21107 247.01304 191.02733 238.75195 178.30078 C 230.49086 165.57424 218.77043 155.86224 203.58789 149.16406 C 188.40535 142.24261 170.31966 138.78125 149.33203 138.78125 L 47.853516 138.78125 z M 102.10938 182.99023 L 146.31836 182.99023 C 163.06381 182.99023 175.56704 186.5623 183.82812 193.70703 C 192.08921 200.85176 196.21875 210.8998 196.21875 223.84961 C 196.21875 236.57615 192.08921 246.62223 183.82812 253.99023 C 175.56704 261.13495 163.06381 264.70703 146.31836 264.70703 L 102.10938 264.70703 L 102.10938 182.99023 z M 269.89844 193.03711 L 336.86914 282.33203 L 267.55469 373.21875 L 324.48828 373.21875 L 365.41016 318.0293 L 404.86719 373.21875 L 464.14648 373.21875 L 394.44141 281.15039 L 461.4668 193.03711 L 405.87109 193.03711 L 366.73047 245.6582 L 328.50781 193.03711 L 269.89844 193.03711 z "></path>
  </g>
</svg><style>@media (prefers-color-scheme: light) { :root { filter: none; } }
@media (prefers-color-scheme: dark) { :root { filter: none; } }
</style></svg>