<?xml version="1.0" standalone="no"?>
<!DOCTYPE svg PUBLIC "-//W3C//DTD SVG 20010904//EN"
 "http://www.w3.org/TR/2001/REC-SVG-20010904/DTD/svg10.dtd">
<svg version="1.0" xmlns="http://www.w3.org/2000/svg"
 width="700.000000pt" height="700.000000pt" viewBox="0 0 700.000000 700.000000"
 preserveAspectRatio="xMidYMid meet">
<metadata>
Created by potrace 1.14, written by Peter Selinger 2001-2017
</metadata>
<g transform="translate(0.000000,700.000000) scale(0.100000,-0.100000)"
fill="#000000" stroke="none">
<path d="M0 3501 l0 -1971 455 0 455 0 0 23 c1 12 2 258 3 547 l2 525 417 2
417 1 378 -549 378 -549 493 0 493 0 -54 78 c-30 42 -120 172 -200 287 -81
116 -152 218 -159 228 -7 10 -104 149 -216 310 -112 161 -215 307 -228 324
l-25 32 78 40 c232 117 415 282 551 496 78 123 149 345 170 530 14 120 7 370
-13 465 -2 14 -10 50 -16 80 -31 150 -123 355 -209 464 -175 222 -353 354
-627 464 -135 53 -231 79 -428 114 -116 21 -153 22 -1117 25 l-998 4 0 -1970z
m1857 1214 c220 -31 345 -86 458 -200 76 -76 135 -179 156 -270 6 -27 13 -59
15 -70 7 -31 7 -225 0 -265 -10 -54 -36 -141 -54 -180 -68 -150 -214 -272
-387 -325 -141 -43 -214 -48 -682 -50 l-451 -2 0 687 -1 687 429 0 c286 0 458
-4 517 -12z"/>
<path d="M3740 4554 c0 -2 65 -91 144 -197 79 -105 153 -203 163 -217 55 -74
546 -727 556 -740 7 -9 41 -55 77 -103 36 -48 91 -121 122 -163 l57 -76 -41
-56 c-23 -31 -44 -59 -48 -62 -3 -3 -17 -21 -30 -40 -13 -19 -27 -37 -30 -40
-4 -4 -59 -77 -102 -135 -5 -5 -27 -35 -51 -65 -24 -30 -93 -120 -153 -200
-249 -328 -439 -577 -461 -605 -29 -37 -19 -24 -133 -175 -52 -69 -98 -126
-102 -128 -40 -18 48 -22 470 -22 l477 1 82 112 c246 336 595 802 601 804 4 1
41 -45 82 -103 41 -58 86 -120 100 -139 14 -18 50 -69 80 -112 30 -43 58 -82
63 -88 4 -5 83 -115 174 -243 l165 -232 494 0 c272 0 494 3 494 8 0 4 -19 32
-43 62 -24 30 -121 159 -217 285 -95 127 -249 329 -340 450 -205 270 -424 560
-453 599 -12 16 -31 41 -43 55 -11 14 -30 41 -43 58 l-22 32 78 103 c43 57 88
114 100 128 13 14 23 28 23 31 0 3 8 15 18 27 31 37 45 56 182 237 74 99 137
182 140 185 3 3 62 79 130 170 69 91 130 172 137 180 7 8 73 96 147 195 75 99
139 185 144 190 4 6 11 15 15 22 6 9 -101 12 -457 12 l-465 -1 -191 -256
c-105 -142 -197 -264 -203 -272 -7 -8 -37 -49 -67 -90 -30 -41 -57 -77 -60
-80 -3 -3 -34 -44 -69 -92 -34 -49 -65 -88 -69 -88 -4 1 -149 197 -323 438
l-316 437 -492 2 c-270 1 -491 0 -491 -3z"/>
</g>
</svg>
